HIERARCHY
ROOT Hips
{
	OFFSET	0.00	0.00	0.00
	CHANNELS 6 Xposition Yposition Zposition Zrotation Xrotation Yrotation
	JOINT LeftUpLeg
	{
		OFFSET	 0.126116	-0.065224	 0.014019
		CHANNELS 3 Zrotation Xrotation Yrotation
		JOINT LeftLeg
		{
			OFFSET	 0.000000	 0.569914	 0.000000
			CHANNELS 3 Zrotation Xrotation Yrotation
			JOINT LeftFoot
			{
				OFFSET	 0.000000	 0.544423	 0.000000
				CHANNELS 3 Zrotation Xrotation Yrotation
				JOINT LeftToeBase
				{
					OFFSET	 0.000000	 0.207117	 0.000000
					CHANNELS 3 Zrotation Xrotation Yrotation
					End Site
					{
						OFFSET	 0.000000	 0.207117	 0.000000
					}
				}
			}
		}
	}
	JOINT RightUpLeg
	{
		OFFSET	-0.124023	-0.065224	 0.008373
		CHANNELS 3 Zrotation Xrotation Yrotation
		JOINT RightLeg
		{
			OFFSET	 0.000000	 0.570047	 0.000000
			CHANNELS 3 Zrotation Xrotation Yrotation
			JOINT RightFoot
			{
				OFFSET	 0.000000	 0.544354	 0.000000
				CHANNELS 3 Zrotation Xrotation Yrotation
				JOINT RightToeBase
				{
					OFFSET	 0.000000	 0.207540	 0.000000
					CHANNELS 3 Zrotation Xrotation Yrotation
					End Site
					{
						OFFSET	 0.000000	 0.207540	 0.000000
					}
				}
			}
		}
	}
	JOINT Spine
	{
		OFFSET	 0.000184	 0.117403	 0.007763
		CHANNELS 3 Zrotation Xrotation Yrotation
		JOINT Spine1
		{
			OFFSET	 0.000000	 0.137269	 0.000000
			CHANNELS 3 Zrotation Xrotation Yrotation
			JOINT Spine2
			{
				OFFSET	 0.000000	 0.156879	 0.000000
				CHANNELS 3 Zrotation Xrotation Yrotation
				JOINT LeftShoulder
				{
					OFFSET	 0.080501	 0.160143	 0.002496
					CHANNELS 3 Zrotation Xrotation Yrotation
					JOINT LeftArm
					{
						OFFSET	 0.000000	 0.164363	 0.000000
						CHANNELS 3 Zrotation Xrotation Yrotation
						JOINT LeftForeArm
						{
							OFFSET	 0.000000	 0.364576	 0.000000
							CHANNELS 3 Zrotation Xrotation Yrotation
							JOINT LeftHand
							{
								OFFSET	 0.000000	 0.360812	 0.000000
								CHANNELS 3 Zrotation Xrotation Yrotation
								JOINT LeftHandIndex1
								{
									OFFSET	 0.000000	 0.086006	 0.000000
									CHANNELS 3 Zrotation Xrotation Yrotation
									JOINT LeftHandIndex2
									{
										OFFSET	 0.000000	 0.047237	 0.000000
										CHANNELS 3 Zrotation Xrotation Yrotation
										JOINT LeftHandIndex3
										{
											OFFSET	-0.004284	 0.038165	 0.000551
											CHANNELS 3 Zrotation Xrotation Yrotation
											End Site
											{
												OFFSET	-0.004284	 0.038165	 0.000551
											}
										}
									}
								}
							}
						}
					}
				}
				JOINT Neck
				{
					OFFSET	 0.000000	 0.176489	 0.000000
					CHANNELS 3 Zrotation Xrotation Yrotation
					JOINT Head
					{
						OFFSET	 0.000000	 0.077941	 0.001747
						CHANNELS 3 Zrotation Xrotation Yrotation
						End Site
						{
							OFFSET	 0.000000	 0.077941	 0.001747
						}
					}
				}
				JOINT RightShoulder
				{
					OFFSET	-0.080363	 0.159706	-0.000306
					CHANNELS 3 Zrotation Xrotation Yrotation
					JOINT RightArm
					{
						OFFSET	 0.000000	 0.164196	 0.000000
						CHANNELS 3 Zrotation Xrotation Yrotation
						JOINT RightForeArm
						{
							OFFSET	 0.000000	 0.365611	 0.000000
							CHANNELS 3 Zrotation Xrotation Yrotation
							JOINT RightHand
							{
								OFFSET	 0.000000	 0.360648	 0.000000
								CHANNELS 3 Zrotation Xrotation Yrotation
								JOINT RightHandIndex1
								{
									OFFSET	 0.000000	 0.069977	 0.000000
									CHANNELS 3 Zrotation Xrotation Yrotation
									JOINT RightHandIndex2
									{
										OFFSET	 0.000000	 0.052305	 0.000000
										CHANNELS 3 Zrotation Xrotation Yrotation
										JOINT RightHandIndex3
										{
											OFFSET	 0.009002	 0.042196	 0.000782
											CHANNELS 3 Zrotation Xrotation Yrotation
											End Site
											{
												OFFSET	 0.009002	 0.042196	 0.000782
											}
										}
									}
								}
							}
						}
					}
				}
			}
		}
	}
}
MOTION
Frames:    12
Frame Time: 0.03333334
 0.436626	 1.274983	 0.406755	 0.531968	-2.429997	-177.247500	-177.715600	 6.556479	-19.864350	 3.292854	-12.200460	 5.956706	 5.244342	 69.060650	-1.416287	 1.292262	 28.425850	-2.713146	 175.365100	 7.211420	 21.477950	-1.889262	-9.732841	 0.850095	 0.026666	 65.204970	-5.668507	-1.288183	 28.361890	 2.710176	-0.065487	 6.563610	-2.349380	 0.617328	-6.767148	-1.141101	 0.010353	 7.808221	 2.909592	-117.536400	-0.803446	 89.947950	 35.322240	 2.613683	-6.470603	 4.294090	-0.268704	 34.388820	-24.887750	-10.001250	-4.190498	-6.580301	 5.266122	 0.000000	 0.000000	 0.000000	 0.000000	 0.000000	 0.000000	 0.000000	 4.848740	 27.285120	 1.668481	-3.991811	-16.253030	 0.860836	 116.409500	-0.473826	-90.557550	-11.469850	-4.588336	 19.975340	-5.048974	 0.225152	-56.924350	-12.741970	-23.590100	 11.467000	 15.208500	 5.323790	 0.000000	 0.000000	 0.000000	 0.000000	 0.000000	 0.000000	 0.000000
 0.436636	 1.276204	 0.407090	 0.535532	-2.535400	-177.237300	-177.685200	 6.675121	-20.150000	 3.285428	-12.173770	 5.980659	 5.333425	 68.810120	-1.431738	 1.292262	 28.425850	-2.713146	 175.342600	 7.313249	 21.779580	-1.879328	-9.682618	 0.814466	-0.173706	 64.954960	-5.559297	-1.288183	 28.361890	 2.710176	-0.019304	 6.635595	-2.764068	 0.605260	-6.975090	-1.145738	 0.021223	 8.050088	 2.903731	-117.646900	-0.837141	 89.932850	 35.602580	 2.546898	-6.234383	 4.446517	-0.167341	 33.920910	-24.621440	-10.044130	-3.977123	-6.580301	 5.266122	 0.000000	 0.000000	 0.000000	 0.000000	 0.000000	 0.000000	 0.000000	 4.925998	 27.526880	 1.604266	-4.000313	-16.373750	 0.873840	 116.583700	-0.521874	-90.540840	-11.629190	-4.686845	 19.863430	-5.154802	 0.377031	-56.536350	-13.072970	-23.538690	 11.078800	 15.208500	 5.323790	 0.000000	 0.000000	 0.000000	 0.000000	 0.000000	 0.000000	 0.000000
 0.436649	 1.277573	 0.407630	 0.541332	-2.683423	-177.222900	-177.649800	 6.853165	-20.466950	 3.280072	-12.154540	 6.015338	 5.469481	 68.523980	-1.471061	 1.292262	 28.425850	-2.713146	 175.317000	 7.467036	 22.119630	-1.868705	-9.628869	 0.764000	-0.436702	 64.669950	-5.412103	-1.288183	 28.361890	 2.710176	 0.024518	 6.657896	-3.344908	 0.623242	-7.099703	-1.151059	 0.021727	 8.312510	 2.895623	-117.802500	-0.884497	 89.911480	 36.034910	 2.507927	-5.911130	 4.662902	-0.027267	 33.267990	-24.305330	-10.129580	-3.701821	-6.580301	 5.266122	 0.000000	 0.000000	 0.000000	 0.000000	 0.000000	 0.000000	 0.000000	 5.035617	 27.867230	 1.512960	-4.012275	-16.543680	 0.892327	 116.829100	-0.589465	-90.517070	-11.870850	-4.757518	 19.708240	-5.307786	 0.589596	-55.999860	-13.487540	-23.506830	 10.537540	 15.208500	 5.323790	 0.000000	 0.000000	 0.000000	 0.000000	 0.000000	 0.000000	 0.000000
 0.436657	 1.278767	 0.408269	 0.548573	-2.839610	-177.207600	-177.616400	 7.053726	-20.742750	 3.280102	-12.154630	 6.053166	 5.621008	 68.271000	-1.525067	 1.292262	 28.425850	-2.713146	 175.293500	 7.641985	 22.420400	-1.861544	-9.592752	 0.710317	-0.700353	 64.419100	-5.261955	-1.288183	 28.361890	 2.710176	 0.094116	 6.755038	-3.962063	 0.611194	-7.347155	-1.158202	 0.035595	 8.644343	 2.887471	-117.967300	-0.934563	 89.888760	 36.536250	 2.520459	-5.579865	 4.894565	 0.117802	 32.584380	-24.034730	-10.240230	-3.438607	-6.580301	 5.266122	 0.000000	 0.000000	 0.000000	 0.000000	 0.000000	 0.000000	 0.000000	 5.152769	 28.227530	 1.415134	-4.024925	-16.723550	 0.912124	 117.089000	-0.660935	-90.491580	-12.147630	-4.765347	 19.546060	-5.474757	 0.813259	-55.444210	-13.872020	-23.511410	 9.975745	 15.208500	 5.323790	 0.000000	 0.000000	 0.000000	 0.000000	 0.000000	 0.000000	 0.000000
 0.436485	 1.285938	 0.417785	 0.677170	-4.525530	-177.037400	-177.261800	 9.790475	-22.521660	 3.538697	-13.079950	 6.517039	 7.487075	 66.741730	-2.419062	 1.292262	 28.425850	-2.713146	 175.060900	 10.080800	 24.475380	-1.965417	-10.117080	 0.112583	-3.249558	 62.931340	-3.754449	-1.288183	 28.361890	 2.710176	 1.040410	 7.822096	-10.652330	 0.470431	-8.878770	-1.239092	 0.198269	 11.741040	 2.815811	-119.774100	-1.478958	 89.630070	 44.220950	 4.662248	-2.696155	 7.529982	 1.498537	 25.537490	-23.933430	-11.954320	-1.889921	-6.580301	 5.266122	 0.000000	 0.000000	 0.000000	 0.000000	 0.000000	 0.000000	 0.000000	 6.514198	 32.166240	 0.261037	-4.162173	-18.689970	 1.143487	 119.939900	-1.436169	-90.191170	-8.441343	 0.276846	 18.080370	-24.115600	 3.554585	-49.954270	-9.963799	-18.531320	 6.184149	 15.208500	 5.323790	 0.000000	 0.000000	 0.000000	 0.000000	 0.000000	 0.000000	 0.000000
 0.436433	 1.286802	 0.419980	 0.708476	-4.857989	-177.002900	-177.188800	 10.390420	-22.762770	 3.615048	-13.351820	 6.614133	 7.884735	 66.545060	-2.624438	 1.292262	 28.425850	-2.713146	 175.013300	 10.620310	 24.770940	-2.003916	-10.310990	-0.004955	-3.728909	 62.747040	-3.469637	-1.288183	 28.361890	 2.710176	 1.262925	 8.030210	-11.956870	 0.445230	-8.998748	-1.253252	 0.230431	 12.273030	 2.804615	-120.133700	-1.586212	 89.576590	 46.038190	 5.277536	-2.300168	 8.066143	 1.730829	 24.220960	-24.261390	-12.305540	-1.787293	-6.580301	 5.266122	 0.000000	 0.000000	 0.000000	 0.000000	 0.000000	 0.000000	 0.000000	 6.803349	 32.946870	 0.012184	-4.189137	-19.079820	 1.192643	 120.507500	-1.588527	-90.126800	-7.502405	 1.676780	 17.648900	-28.673560	 4.094811	-48.966660	-8.560877	-17.374880	 5.564413	 15.208500	 5.323790	 0.000000	 0.000000	 0.000000	 0.000000	 0.000000	 0.000000	 0.000000
 0.436380	 1.287766	 0.422720	 0.747250	-5.269279	-176.960000	-177.101700	 11.129820	-23.034010	 3.706594	-13.676910	 6.733529	 8.384047	 66.309840	-2.880750	 1.292262	 28.425850	-2.713146	 174.956100	 11.285530	 25.109370	-2.049518	-10.540300	-0.148179	-4.318114	 62.528640	-3.123306	-1.288183	 28.361890	 2.710176	 1.550589	 8.283611	-13.553480	 0.417465	-9.101807	-1.269563	 0.268769	 12.910510	 2.791989	-120.578600	-1.718402	 89.509500	 48.311650	 6.016022	-1.887676	 8.729984	 2.000170	 22.626520	-24.687040	-12.702490	-1.721765	-6.580301	 5.266122	 0.000000	 0.000000	 0.000000	 0.000000	 0.000000	 0.000000	 0.000000	 7.170215	 33.910780	-0.305254	-4.222316	-19.561360	 1.254870	 121.209700	-1.776057	-90.045130	-6.986277	 3.227376	 17.066060	-33.070430	 4.725971	-47.800450	-7.173612	-16.408020	 4.753747	 15.208500	 5.323790	 0.000000	 0.000000	 0.000000	 0.000000	 0.000000	 0.000000	 0.000000
 0.436354	 1.288721	 0.425630	 0.787229	-5.711941	-176.913500	-177.015800	 11.909330	-23.297320	 3.795495	-13.991710	 6.859347	 8.926315	 66.054040	-3.153721	 1.292262	 28.425850	-2.713146	 174.897900	 11.986720	 25.444610	-2.091951	-10.753400	-0.298447	-4.947173	 62.293210	-2.760358	-1.288183	 28.361890	 2.710176	 1.871566	 8.547665	-15.243680	 0.392998	-9.177454	-1.285786	 0.307452	 13.579570	 2.779971	-121.056500	-1.859747	 89.436340	 50.714360	 6.723345	-1.524752	 9.444497	 2.267980	 20.953670	-25.088900	-13.056370	-1.714277	-6.580301	 5.266122	 0.000000	 0.000000	 0.000000	 0.000000	 0.000000	 0.000000	 0.000000	 7.576004	 34.943560	-0.658475	-4.257715	-20.077550	 1.323431	 121.964000	-1.976229	-89.954920	-6.990938	 4.665704	 16.436350	-36.696540	 5.370532	-46.612690	-6.029080	-15.715060	 3.911847	 15.208500	 5.323790	 0.000000	 0.000000	 0.000000	 0.000000	 0.000000	 0.000000	 0.000000
 0.436372	 1.289617	 0.428354	 0.822724	-6.144285	-176.868500	-176.943600	 12.640270	-23.529720	 3.866421	-14.242270	 6.977649	 9.456234	 65.790470	-3.411776	 1.292262	 28.425850	-2.713146	 174.846100	 12.644440	 25.725530	-2.118670	-10.908010	-0.419415	-5.554856	 62.051720	-2.418987	-1.288183	 28.361890	 2.710176	 2.192289	 8.794502	-16.859480	 0.375563	-9.242729	-1.300901	 0.341776	 14.226680	 2.769917	-121.521300	-1.996531	 89.364080	 52.935840	 7.271423	-1.226184	 10.140460	 2.507532	 19.364430	-25.344310	-13.299390	-1.761594	-6.580301	 5.266122	 0.000000	 0.000000	 0.000000	 0.000000	 0.000000	 0.000000	 0.000000	 7.982858	 35.945100	-1.014717	-4.291893	-20.578420	 1.391811	 122.697500	-2.169649	-89.864680	-7.380030	 5.806174	 15.868330	-39.415700	 5.972298	-45.517290	-5.235584	-15.217310	 3.185284	 15.208500	 5.323790	 0.000000	 0.000000	 0.000000	 0.000000	 0.000000	 0.000000	 0.000000
 0.436511	 1.290991	 0.432113	 0.866082	-6.802389	-176.801100	-176.864500	 13.672150	-23.841210	 3.934317	-14.481570	 7.145694	 10.252990	 65.347270	-3.777094	 1.292262	 28.425850	-2.713146	 174.779600	 13.573740	 26.160690	-2.142496	-11.006730	-0.645134	-6.461579	 61.646790	-1.931515	-1.288183	 28.361890	 2.710176	 2.683896	 9.144659	-19.237340	 0.363564	-9.385897	-1.324922	 0.385256	 15.223900	 2.758373	-122.222100	-2.201591	 89.253070	 55.907210	 7.734949	-0.807242	 11.194520	 2.830960	 17.032840	-25.318600	-13.409960	-1.928254	-6.580301	 5.266122	 0.000000	 0.000000	 0.000000	 0.000000	 0.000000	 0.000000	 0.000000	 8.620627	 37.449760	-1.577091	-4.342956	-21.331580	 1.498077	 123.803600	-2.458869	-89.724010	-8.353072	 6.948438	 15.169230	-42.508320	 6.846405	-43.965000	-4.626890	-14.490440	 2.378331	 15.208500	 5.323790	 0.000000	 0.000000	 0.000000	 0.000000	 0.000000	 0.000000	 0.000000
 0.443069	 1.287724	 0.480298	 1.093036	-16.187730	-175.003300	-177.141700	 29.935880	-23.885670	 5.677435	-20.424700	 12.225280	 25.605220	 61.891090	-15.050570	 1.292262	 28.425850	-2.713146	 171.973700	 29.201400	 30.655970	-3.436248	-17.319530	-3.720182	-19.269320	 60.085740	 5.906510	-1.288183	 28.361890	 2.710176	 6.172676	 9.274140	-34.124440	 0.128345	-4.988949	-1.079909	 0.860262	 14.670960	 1.323529	-122.939300	 6.769145	 93.860450	 63.040370	 11.456560	-5.277394	 18.905040	 5.048596	 5.110102	-15.837660	-26.939100	-9.673575	-6.580301	 5.266122	 0.000000	 0.000000	 0.000000	 0.000000	 0.000000	 0.000000	 0.000000	 8.703669	 35.904710	-2.898302	-3.710054	-24.369010	 0.925300	 125.614800	 5.706964	-94.171840	-7.645126	 19.217620	 8.986894	-67.611890	 11.631540	-26.694830	-0.522827	-21.434960	 3.205362	 15.208500	 5.323790	 0.000000	 0.000000	 0.000000	 0.000000	 0.000000	 0.000000	 0.000000
 0.445111	 1.283574	 0.490108	 1.273430	-17.879350	-174.428900	-177.233000	 33.096170	-23.088970	 6.105089	-21.817940	 13.205000	 28.093330	 61.320320	-17.020320	 1.292262	 28.425850	-2.713146	 171.255000	 32.266930	 31.332860	-3.800706	-19.027710	-4.031924	-21.228000	 60.340040	 7.091682	-1.288183	 28.361890	 2.710176	 6.559108	 9.138772	-35.614980	 0.229734	-2.618768	-1.000659	 0.992159	 13.496270	 1.096215	-122.572100	 8.092706	 94.505740	 64.279500	 12.185450	-5.908687	 19.846090	 5.434250	 4.198021	-14.623090	-30.059770	-10.862300	-6.580301	 5.266122	 0.000000	 0.000000	 0.000000	 0.000000	 0.000000	 0.000000	 0.000000	 8.205971	 35.554940	-2.767565	-3.514952	-24.977060	 0.783105	 125.362900	 7.109694	-94.904210	-8.758778	 20.564430	 8.695246	-71.550980	 12.129110	-24.568530	 1.059977	-23.177070	 3.984149	 15.208500	 5.323790	 0.000000	 0.000000	 0.000000	 0.000000	 0.000000	 0.000000	 0.000000
